<?xml version="1.0" encoding="UTF-8"?>
<!-- Generated by Pixelmator Pro 3.6.13 -->
<svg width="2667" height="533" viewBox="0 0 2667 533" xmlns="http://www.w3.org/2000/svg">
    <path id="Shape" fill="#f6831e" fill-rule="evenodd" stroke="none" d="M 1284 452.108856 C 1284.004639 304.072388 1284.381714 270.418945 1285.104248 264.5 C 1285.708374 259.549988 1287.233398 251.427246 1288.493164 246.449432 C 1289.75293 241.471619 1292.200317 234.069702 1293.931763 230.000763 C 1295.66333 225.931793 1299.490723 218.979553 1302.437256 214.551331 C 1305.383789 210.123108 1310.465088 203.95282 1313.729126 200.8396 C 1316.993164 197.726349 1323.097656 192.937469 1327.294678 190.197601 C 1331.491699 187.457764 1338.879883 183.776978 1343.712891 182.018158 C 1348.545776 180.259308 1356.324951 178.073212 1361 177.160126 C 1366.442749 176.097107 1374.5354 175.5 1383.5 175.5 C 1392.955933 175.5 1400.370972 176.078583 1406.345093 177.282532 C 1411.209961 178.262909 1418.917236 180.567871 1423.472412 182.404663 C 1428.027588 184.241455 1434.84729 187.755737 1438.627197 190.214142 C 1442.407227 192.672577 1447.78894 196.755615 1450.586426 199.287598 C 1453.383911 201.81958 1457.559204 206.336334 1459.864868 209.32489 C 1462.170532 212.313416 1465.991943 218.154083 1468.357056 222.304169 L 1472.657104 229.849762 L 1475.430786 224.174896 C 1476.956299 221.053711 1480.156494 215.757111 1482.542358 212.404663 C 1484.928223 209.052246 1490.216187 203.20224 1494.293335 199.404663 C 1498.370483 195.607086 1504.584839 190.803955 1508.103149 188.730988 C 1511.62146 186.658051 1517.895508 183.650421 1522.045532 182.047424 C 1526.195435 180.444427 1533.558228 178.31546 1538.407227 177.316437 C 1544.403809 176.080933 1551.585205 175.5 1560.861694 175.5 C 1568.362793 175.5 1578.099976 176.110046 1582.5 176.855652 C 1586.900024 177.601257 1594.685425 179.706451 1599.800781 181.533844 C 1604.91626 183.361237 1612.566284 186.988617 1616.800781 189.594696 C 1621.176636 192.28772 1627.953247 197.85556 1632.5 202.493561 C 1636.900024 206.981842 1642.331909 213.769409 1644.571045 217.577026 C 1646.810059 221.384674 1650.074951 227.961853 1651.826294 232.193024 C 1653.577515 236.424194 1655.878784 243.624176 1656.940186 248.193024 C 1658.001465 252.761871 1659.3479 260.549988 1659.932129 265.5 C 1660.605957 271.209351 1660.995361 306.951233 1660.997192 363.255005 L 1661 452.01001 L 1641.75 442.341064 C 1631.162476 437.023132 1617.666992 430.956055 1611.76001 428.858643 C 1605.853149 426.76123 1596.628052 424.107574 1591.26001 422.961609 C 1584.839111 421.590881 1575.855103 420.674194 1565 420.282196 C 1554.311035 419.896179 1544.978271 420.122559 1538.500366 420.924957 C 1533.000488 421.606232 1523.550415 423.443054 1517.500366 425.006836 C 1511.450195 426.570618 1502.044189 429.673431 1496.598267 431.901978 C 1491.152344 434.130493 1483.683472 437.774384 1480.000854 439.999481 C 1473.305176 444.045105 1473.305176 444.045105 1460.902588 438.027191 C 1454.081177 434.717316 1443.775024 430.434875 1438 428.51062 C 1432.224976 426.586395 1423.449951 424.078613 1418.5 422.937805 C 1411.948608 421.427948 1404.466797 420.707275 1391 420.28894 C 1376.4198 419.835999 1370.092285 420.073364 1361.136597 421.409119 C 1354.886719 422.341278 1344.536743 424.67981 1338.136597 426.605896 C 1331.73645 428.531921 1321.550049 432.592834 1315.5 435.630066 C 1309.449951 438.667328 1299.887451 443.617584 1294.25 446.630615 L 1284 452.108856 Z M 1961.276611 315 L 1731.741699 315 L 1732.431519 321.097595 C 1732.810913 324.451263 1734.222168 330.9935 1735.567383 335.635925 C 1736.91272 340.27832 1739.637939 347.321899 1741.623535 351.28833 C 1743.609009 355.254761 1747.154541 361.200012 1749.502563 364.5 C 1751.850586 367.799988 1756.635498 373.236938 1760.135864 376.582031 C 1763.636108 379.927185 1768.974976 384.297333 1772 386.293518 C 1775.025024 388.289673 1780.905273 391.490906 1785.067261 393.407318 C 1789.229248 395.32373 1795.979248 397.820007 1800.067261 398.954559 C 1804.155273 400.089111 1812.5625 401.546417 1818.75 402.192993 C 1827.382202 403.095062 1832.635254 403.093933 1841.325195 402.18811 C 1847.554077 401.538818 1856.216553 400.103455 1860.575195 398.998413 C 1864.933838 397.893372 1872.550049 395.030457 1877.5 392.636322 C 1882.449951 390.242188 1889.289673 386.173645 1892.699219 383.595093 C 1896.108765 381.016541 1900.944092 376.631592 1903.444214 373.8508 C 1905.944458 371.070007 1909.418091 366.590942 1911.163452 363.8974 C 1914.336792 359 1914.336792 359 1932.285034 359 C 1949.72168 359 1950.218384 359.056824 1949.711914 360.993591 C 1949.425171 362.090027 1947.529907 366.027527 1945.500122 369.743591 C 1943.470459 373.459595 1939.344238 379.792572 1936.330811 383.816833 C 1933.317383 387.841064 1928.072632 393.848724 1924.675903 397.167175 C 1921.279175 400.485596 1915.574951 405.409424 1912 408.109039 C 1908.425049 410.808655 1901.0625 415.308899 1895.639038 418.109619 C 1890.215454 420.91037 1881.918213 424.506561 1877.200562 426.101196 C 1872.483032 427.695831 1863.929077 429.906403 1858.191772 431.013611 C 1852.454468 432.120789 1841.851807 433.218079 1834.630127 433.452026 C 1827.408569 433.685974 1817.675049 433.453369 1813 432.935181 C 1808.324951 432.416962 1799.775024 430.818817 1794 429.383759 C 1788.224976 427.948669 1780.125 425.439667 1776 423.808167 C 1771.875 422.176697 1765.184692 419.016724 1761.132568 416.786011 C 1757.080444 414.555328 1750.262207 410.090729 1745.980957 406.864685 C 1741.699707 403.638672 1734.996338 397.572205 1731.084839 393.383728 C 1727.173218 389.195221 1721.459595 381.991211 1718.387939 377.374817 C 1715.316406 372.758423 1711.07312 365.048096 1708.958496 360.240692 C 1706.843872 355.433319 1703.974365 347.550781 1702.581787 342.723999 C 1701.189209 337.897217 1699.476074 330.022217 1698.774902 325.223999 C 1698.07373 320.425781 1697.5 311.325012 1697.5 305 C 1697.5 298.674988 1698.05188 289.225006 1698.726318 284 C 1699.400879 278.774994 1701.120361 270.450012 1702.547485 265.5 C 1703.974731 260.549988 1707.331177 251.890747 1710.006348 246.257263 C 1712.681519 240.623749 1717.202759 232.64035 1720.053711 228.516418 C 1722.904541 224.392487 1728.446289 217.704132 1732.36853 213.653412 C 1736.290894 209.602692 1743.116455 203.623688 1747.536499 200.36676 C 1751.956543 197.109802 1759.213623 192.550964 1763.66333 190.235962 C 1768.113037 187.92099 1776.421509 184.476746 1782.126831 182.582062 C 1787.832031 180.687408 1795.875 178.404816 1800 177.509674 C 1804.227661 176.592255 1814.809204 175.629333 1824.252441 175.302734 C 1837.349487 174.849731 1843.432739 175.096008 1852.13147 176.431458 C 1858.251099 177.370941 1867.137451 179.258392 1871.879028 180.625793 C 1876.620605 181.993195 1885.109253 185.307587 1890.742798 187.991119 C 1896.376221 190.674652 1904.463379 195.261963 1908.714111 198.18515 C 1912.964844 201.108307 1920.078125 207.100006 1924.52124 211.5 C 1928.964355 215.899994 1934.7052 222.468811 1937.278687 226.097351 C 1939.852173 229.725861 1943.965942 236.475861 1946.42041 241.097351 C 1948.874878 245.718811 1952.252075 253.594452 1953.925293 258.598816 C 1955.598389 263.603149 1957.669922 270.803162 1958.528564 274.598816 C 1959.392334 278.417114 1960.354858 288.982544 1960.683105 298.25 L 1961.276611 315 Z M 2292.908203 181 L 2325.894287 181 L 2326.282471 255.25 C 2326.617432 319.294586 2326.892822 330.404846 2328.285156 336.083374 C 2329.172852 339.704224 2331.242432 346.346436 2332.883789 350.843872 C 2334.525146 355.341309 2337.537109 361.768677 2339.577148 365.126923 C 2341.617188 368.485168 2345.9729 374.104736 2349.256348 377.614899 C 2352.540039 381.125031 2358.313721 386.049408 2362.087158 388.557953 C 2365.860596 391.066467 2371.678467 394.228516 2375.016113 395.584656 C 2378.353516 396.940796 2384.740234 398.923615 2389.20874 399.990906 C 2393.67749 401.058167 2401.66748 402.229919 2406.9646 402.594727 C 2412.683105 402.988586 2420.823242 402.766602 2427.001953 402.04834 C 2432.725098 401.382935 2441.028564 399.704285 2445.453857 398.317932 C 2449.87915 396.93158 2456.425049 394.270508 2460 392.404388 C 2463.574951 390.5383 2469.314453 386.705505 2472.754395 383.887024 C 2476.194336 381.068542 2481.100342 376.003479 2483.65625 372.631287 C 2486.212402 369.259094 2490.244873 362.43042 2492.617676 357.456451 C 2494.990234 352.482483 2497.938721 344.607483 2499.169434 339.956451 C 2501.373291 331.628967 2501.411865 330.401917 2501.694336 259.5 C 2501.852051 219.899994 2502.230957 186.037506 2502.535889 184.25 C 2503.090576 181 2503.090576 181 2519.603271 181 L 2536.115723 181 L 2535.710693 255.75 C 2535.352539 321.815063 2535.101807 331.545654 2533.552246 339.5 C 2532.587891 344.450012 2530.439941 352.774994 2528.778809 358 C 2527.11792 363.225006 2524.177002 370.649994 2522.243652 374.5 C 2520.310303 378.350006 2516.90625 384.200012 2514.678955 387.5 C 2512.45166 390.799988 2507.906982 396.348206 2504.579834 399.829285 C 2501.25293 403.310425 2495.554932 408.364685 2491.917725 411.060974 C 2488.280518 413.757294 2481.720703 417.757263 2477.340088 419.949799 C 2472.959473 422.142334 2465.353516 425.248688 2460.437744 426.852783 C 2455.521973 428.456909 2447.225098 430.50592 2442 431.406158 C 2436.774902 432.306396 2426.425049 433.227814 2419 433.453705 C 2411.574951 433.679596 2402.119385 433.507355 2397.987549 433.070923 C 2393.855957 432.634521 2386.755615 431.523743 2382.209229 430.602539 C 2377.663086 429.681335 2370.160156 427.640869 2365.536133 426.068115 C 2360.912109 424.495361 2353.461182 421.254333 2348.978271 418.865845 C 2344.495605 416.477356 2337.201416 411.621613 2332.769287 408.075317 C 2328.336914 404.529053 2321.839355 397.99884 2318.330322 393.563782 C 2314.821289 389.128693 2309.887207 381.508484 2307.365967 376.630005 C 2304.844727 371.751526 2301.707275 364.551514 2300.393555 360.630005 C 2299.080078 356.708496 2297.020752 349.450012 2295.817383 344.5 C 2293.681396 335.713989 2293.62085 333.663147 2293.268799 258.25 L 2292.908203 181 Z M 2243.5 426.5 L 2210.084229 427.047974 L 2209.732666 352.773987 C 2209.416016 285.814606 2209.206299 277.761383 2207.601807 271 C 2206.623291 266.875 2204.469482 259.986053 2202.815918 255.691193 C 2201.162109 251.396362 2197.59082 244.565369 2194.87915 240.5112 C 2192.16748 236.457062 2186.814453 230.237854 2182.983154 226.690765 C 2178.325439 222.378448 2172.949707 218.704315 2166.758789 215.602173 C 2161.666504 213.050537 2153.899902 210.018646 2149.5 208.864685 C 2143.831055 207.37793 2137.12915 206.615875 2126.5 206.249451 C 2115.114746 205.856964 2109.25415 206.129547 2102.18042 207.380554 C 2097.054688 208.287109 2089.3396 210.386719 2085.035889 212.046387 C 2080.732178 213.706055 2074.351074 216.892517 2070.855469 219.127411 C 2067.360107 221.362335 2062.322266 225.285431 2059.6604 227.845428 C 2056.998535 230.405457 2052.827393 235.269165 2050.391357 238.653656 C 2047.9552 242.038177 2044.567383 247.883026 2042.862915 251.642181 C 2041.158325 255.401367 2038.592041 262.757202 2037.159912 267.988525 C 2034.55603 277.5 2034.55603 277.5 2034.230835 352.25 L 2033.905518 427 L 2017.421387 427 C 2004.05188 427 2000.833618 426.729858 2000.388672 425.570374 C 2000.086914 424.784058 2000.040161 391.596558 2000.284668 351.820374 C 2000.703857 283.647278 2000.849487 278.869202 2002.822876 268.5 C 2003.974365 262.450012 2006.221069 253.674988 2007.815552 249 C 2009.410034 244.325012 2012.539917 236.899994 2014.770874 232.5 C 2017.001831 228.100006 2020.424561 222.274628 2022.376953 219.554718 C 2024.329346 216.834778 2028.755737 211.705292 2032.213379 208.155792 C 2035.671021 204.606323 2041.199951 199.694977 2044.5 197.241699 C 2047.800049 194.788452 2054.100098 190.966217 2058.5 188.747894 C 2062.899902 186.529572 2070.12207 183.487915 2074.549072 181.988647 C 2078.97583 180.48938 2086.85083 178.416107 2092.049072 177.381348 C 2099.303955 175.937164 2105.915039 175.5 2120.5 175.5 C 2130.949951 175.5 2143.338135 176.061035 2148.029297 176.746735 C 2152.720459 177.432434 2161.042725 179.395111 2166.523193 181.108246 C 2172.003906 182.821381 2180.090576 186.024994 2184.493896 188.227417 C 2188.897217 190.42981 2195.199951 194.16687 2198.5 196.532013 C 2201.800049 198.897125 2207.731934 204.132477 2211.682129 208.166107 C 2215.63208 212.199768 2220.518066 217.975006 2222.539551 221 C 2224.561035 224.024994 2227.80542 229.649994 2229.749268 233.5 C 2231.693115 237.350006 2234.369629 243.649994 2235.69751 247.5 C 2237.025146 251.350006 2238.995117 258.549988 2240.074951 263.5 C 2241.154785 268.450012 2242.522949 280.149994 2243.11499 289.5 C 2243.758789 299.666016 2244.05249 330.619995 2243.845703 366.5 L 2243.5 426.5 Z M 1455.5 403.593079 C 1455.962769 353.920959 1455.919922 323.075012 1455.703247 303 C 1455.341431 269.470367 1455.131348 265.808258 1453.12207 258 C 1451.919067 253.325012 1449.046875 245.674988 1446.739258 241 C 1443.650391 234.741791 1440.691895 230.629669 1435.521973 225.408417 C 1431.543335 221.390381 1425.682861 216.769592 1422 214.746857 C 1418.425049 212.783386 1412.349976 210.214081 1408.5 209.037292 C 1404.598633 207.844818 1397.138672 206.629395 1391.647339 206.291534 C 1385.643066 205.92215 1378.634888 206.169098 1373.70459 206.923828 C 1369.255005 207.60498 1362.800293 209.221558 1359.360718 210.516205 C 1355.921143 211.810852 1350.720459 214.398315 1347.803467 216.266113 C 1344.886597 218.133911 1340.245728 221.966492 1337.490479 224.782959 C 1334.735229 227.599396 1330.965454 232.404236 1329.113281 235.460327 C 1327.261108 238.516449 1324.638916 244.050598 1323.286377 247.758453 C 1321.933716 251.466309 1320.128906 257.649994 1319.275513 261.5 C 1317.987915 267.309113 1317.649536 279.699677 1317.286133 334.331238 C 1317.04541 370.538422 1317.078247 400.761658 1317.359375 401.493958 C 1317.759155 402.535828 1319.787964 402.183777 1326.685181 399.875854 C 1331.533325 398.25354 1340.900024 395.793518 1347.5 394.409119 C 1356.403931 392.541443 1364.015137 391.735718 1377 391.286163 C 1388.171875 390.899384 1398.542114 391.120972 1405.677979 391.898956 C 1411.825928 392.569214 1421.500977 394.175507 1427.177979 395.468475 C 1432.855103 396.761444 1441.550049 399.118408 1446.5 400.706207 L 1455.5 403.593079 Z M 1490.830322 402.754608 C 1491.837036 402.491333 1495.549561 401.333801 1499.080322 400.182251 C 1502.611206 399.030701 1509.099976 397.188477 1513.5 396.08844 C 1517.900024 394.988403 1526.922363 393.328003 1533.549683 392.398743 C 1543.004395 391.072998 1549.680542 390.834106 1564.549683 391.289581 C 1579.327148 391.742218 1586.142456 392.427673 1595.5 394.402466 C 1602.099976 395.795319 1611.526123 398.300964 1616.446899 399.970581 C 1621.367676 401.640198 1625.772705 402.627319 1626.23584 402.164124 C 1626.698975 401.700989 1626.942383 370.087067 1626.776611 331.911011 C 1626.475342 262.5 1626.475342 262.5 1623.677368 253.526886 C 1622.13855 248.591675 1619.460449 241.841675 1617.726196 238.526886 C 1615.82312 234.889435 1611.386841 229.311279 1606.536499 224.457123 C 1600.855103 218.77121 1596.549316 215.469543 1591.84375 213.190582 C 1588.182739 211.417572 1582.107788 209.186859 1578.34375 208.233459 C 1573.575928 207.025818 1567.53064 206.5 1558.414673 206.5 C 1547.67395 206.5 1543.911133 206.915344 1537.414673 208.817963 C 1533.061646 210.092865 1526.574951 212.75351 1523 214.730499 C 1519.425049 216.70752 1513.570801 221.289429 1509.990601 224.912537 C 1505.739258 229.214783 1502.027466 234.294861 1499.290527 239.55658 C 1496.985718 243.987701 1494.174194 250.987762 1493.042603 255.112244 C 1491.911133 259.236755 1490.550171 267.086273 1490.018433 272.555664 C 1489.486694 278.025055 1489.040039 309.664978 1489.025757 342.866638 C 1489.000977 400.883118 1489.071289 403.21463 1490.830322 402.754608 Z M 1350.5 366.691467 C 1348.744507 366.937012 1346.58313 366.453857 1345.289917 365.526794 C 1344.07373 364.654968 1342.777588 362.331482 1342.407715 360.360016 C 1341.959473 357.97052 1342.247803 355.703522 1343.27356 353.552429 C 1344.373291 351.246399 1346.244385 349.710999 1349.8396 348.164368 C 1352.60498 346.974731 1358.609863 345.074951 1363.183838 343.942688 C 1368.092651 342.727539 1376.669922 341.64624 1384.11792 341.30368 C 1393.36377 340.878418 1399.260376 341.149811 1406.182007 342.319214 C 1411.377319 343.19696 1419.288818 345.071533 1423.762939 346.484924 C 1429.382813 348.260223 1432.532104 349.860962 1433.948975 351.662231 C 1435.184448 353.23291 1436 355.752991 1436 358 C 1436 360.307861 1435.176636 362.777069 1433.840698 364.475433 C 1432.004639 366.809601 1431.143799 367.141602 1428.090698 366.692993 C 1426.115845 366.402802 1421.941528 365.26239 1418.814575 364.158752 C 1415.6875 363.055115 1409.67334 361.571472 1405.449707 360.861786 C 1401.226196 360.1521 1393.82373 359.571411 1389 359.571411 C 1384.17627 359.571411 1376.773804 360.1521 1372.550293 360.861786 C 1368.32666 361.571472 1362.3125 363.079071 1359.185425 364.211975 C 1356.058472 365.34491 1352.150024 366.460693 1350.5 366.691467 Z M 1517.909302 366.664276 C 1514.840332 367.139771 1514.005005 366.821777 1512.159302 364.475433 C 1510.782959 362.725708 1510 360.312256 1510 357.819702 C 1510 355.066223 1510.684326 353.224792 1512.312622 351.596527 C 1513.584473 350.324585 1517.156982 348.33667 1520.251343 347.178894 C 1523.345825 346.021118 1529.78418 344.269714 1534.558838 343.286926 C 1540.43103 342.078186 1547.692261 341.5 1557 341.5 C 1566.307739 341.5 1573.56897 342.078186 1579.441162 343.286926 C 1584.21582 344.269714 1590.654175 346.021118 1593.748657 347.178894 C 1596.843018 348.33667 1600.415527 350.324585 1601.687378 351.596527 C 1603.350464 353.259552 1604 355.058105 1604 358 C 1604 361.055603 1603.352295 362.738617 1601.440674 364.650238 C 1599.580688 366.510223 1598.146118 367.082886 1596.190674 366.74585 C 1594.710815 366.490845 1589.466064 365.080322 1584.535767 363.61142 C 1579.605469 362.142517 1571.400391 360.508148 1566.302368 359.979492 C 1560.155762 359.342133 1553.619629 359.368652 1546.900391 360.058167 C 1541.327393 360.630066 1533.332397 362.22522 1529.133789 363.602966 C 1524.935181 364.980713 1519.884155 366.358276 1517.909302 366.664276 Z M 1348.916016 327 C 1347.113647 327 1345.420654 326.07901 1344.072632 324.365143 C 1342.912842 322.890686 1342 320.255188 1342 318.38092 C 1342 316.103271 1342.879883 314.095062 1344.75 312.104736 C 1346.262451 310.494995 1349.974976 308.293213 1353 307.211853 C 1356.025024 306.130493 1361.792725 304.503204 1365.817261 303.595642 C 1369.841797 302.688049 1377.941772 301.688171 1383.817261 301.373657 C 1391.093262 300.984192 1397.689087 301.291626 1404.5 302.337708 C 1410 303.182434 1418.270996 305.065063 1422.880005 306.521362 C 1427.569214 308.002991 1432.303955 310.213013 1433.630005 311.539124 C 1435.398071 313.307129 1436 315.015717 1436 318.265991 C 1436 321.268372 1435.366089 323.303284 1433.96106 324.811432 C 1432.799805 326.057922 1430.714844 327 1429.117554 327 C 1427.575073 327 1423.655151 326.070618 1420.406494 324.934692 C 1417.157959 323.798798 1411.197876 322.223816 1407.161987 321.434692 C 1403.126099 320.64563 1394.953247 320 1389 320 C 1383.046753 320 1374.873901 320.64563 1370.838013 321.434692 C 1366.802124 322.223816 1360.842041 323.798798 1357.593506 324.934692 C 1354.344849 326.070618 1350.440063 327 1348.916016 327 Z M 1516.897461 327 C 1515.115234 327 1513.414673 326.07135 1512.072632 324.365143 C 1510.932617 322.915955 1510 320.462158 1510 318.912201 C 1510 317.362244 1510.519165 314.95459 1511.153809 313.561829 C 1511.78833 312.169067 1514.20166 310.11261 1516.516602 308.991943 C 1518.831543 307.871277 1525.126709 305.837952 1530.505859 304.47345 C 1536.357666 302.989014 1544.747437 301.753418 1551.393066 301.397339 C 1559.106934 300.984009 1565.554932 301.271332 1572.5 302.337891 C 1578 303.182495 1586.268555 305.064301 1590.874512 306.519653 C 1596.170898 308.193085 1600.122192 310.107819 1601.624512 311.728882 C 1603.239868 313.471863 1604 315.482117 1604 318.011169 C 1604 320.299561 1603.175049 322.778992 1601.855591 324.456421 C 1600.066162 326.731262 1599.11438 327.111298 1596.105591 326.752197 C 1594.122559 326.515564 1588.449951 325.0755 1583.5 323.552155 C 1576.373169 321.358856 1571.794312 320.670319 1561.5 320.243896 C 1553.362427 319.906799 1545.776001 320.16098 1541.217163 320.923431 C 1537.21167 321.593353 1530.720337 323.234619 1526.791992 324.57074 C 1522.86377 325.90683 1518.411133 327 1516.897461 327 Z M 1348.747437 288 C 1347.127197 288 1345.363037 287.005615 1344.072632 285.365143 C 1342.932617 283.915955 1342 281.462158 1342 279.912201 C 1342 278.362244 1342.519165 275.954559 1343.153809 274.561798 C 1343.78833 273.169037 1346.150879 271.154602 1348.403809 270.085266 C 1350.656738 269.0159 1355.650024 267.231476 1359.5 266.119873 C 1363.349976 265.00827 1369.736206 263.626556 1373.691528 263.049377 C 1377.646851 262.472229 1384.535767 262 1389 262 C 1393.464233 262 1400.353149 262.477173 1404.308472 263.060394 C 1408.263794 263.643616 1413.974976 264.783051 1417 265.592438 C 1420.025024 266.401855 1424.505859 267.797546 1426.957397 268.693939 C 1429.408936 269.590363 1432.446411 271.355469 1433.707397 272.616455 C 1435.398193 274.307312 1436 276.056427 1436 279.280212 C 1436 282.620422 1435.424927 284.191681 1433.561401 285.942261 C 1431.682373 287.707581 1430.363159 288.110352 1427.811401 287.697906 C 1425.990112 287.403503 1420.675049 285.952179 1416 284.472717 C 1409.288086 282.348694 1404.765259 281.66803 1394.5 281.237061 C 1387.058472 280.924683 1378.206177 281.165894 1373.796631 281.80127 C 1369.559692 282.411743 1362.775879 284.056213 1358.721436 285.455627 C 1354.66687 286.855042 1350.178589 288 1348.747437 288 Z M 1517.894409 287.677399 C 1514.842651 288.104919 1513.959351 287.763733 1512.144409 285.456421 C 1510.782227 283.72467 1510 281.303833 1510 278.819702 C 1510 276.066223 1510.684326 274.224792 1512.312622 272.596527 C 1513.584473 271.324615 1517.072021 269.375366 1520.062622 268.264862 C 1523.053101 267.154358 1528.875 265.484192 1533 264.553345 C 1537.125 263.622528 1545.064209 262.602142 1550.6427 262.285858 C 1556.30542 261.964813 1564.918457 262.22937 1570.1427 262.884857 C 1575.289185 263.530579 1581.974976 264.740906 1585 265.574463 C 1588.025024 266.408051 1592.878052 268.028351 1595.784424 269.17514 C 1598.690918 270.32196 1601.728394 272.201813 1602.534424 273.352631 C 1603.340454 274.503448 1604 277.084198 1604 279.087646 C 1604 281.297852 1603.156738 283.802307 1601.855591 285.456421 C 1600.040649 287.763733 1599.157349 288.104919 1596.105591 287.677399 C 1594.122559 287.399597 1588.449951 285.895996 1583.5 284.336121 C 1575.046387 281.67218 1573.4375 281.5 1557 281.5 C 1540.5625 281.5 1538.953613 281.67218 1530.5 284.336121 C 1525.550049 285.895996 1519.877441 287.399597 1517.894409 287.677399 Z M 1829.5 285 C 1926.255615 285 1926.255615 285 1925.620605 281.028778 C 1925.271362 278.844604 1923.866333 273.557098 1922.498291 269.278778 C 1921.130371 265.000458 1918.672485 258.876587 1917.036377 255.670197 C 1915.400269 252.463776 1912.072266 247.052429 1909.640747 243.644958 C 1907.209106 240.237488 1902.028809 234.439362 1898.128784 230.760254 C 1894.228638 227.081116 1887.574707 222.043732 1883.342041 219.56604 C 1879.109375 217.088379 1871.831055 213.680634 1867.167969 211.993347 C 1862.504883 210.30603 1854.466919 208.212097 1849.305664 207.340118 C 1842.404419 206.174133 1836.030029 205.88855 1825.210938 206.260651 C 1814.807373 206.618439 1808.157593 207.38382 1802.5 208.874634 C 1798.099976 210.034058 1791.574951 212.201416 1788 213.69101 C 1784.425049 215.180573 1778.903931 217.911072 1775.730957 219.758759 C 1772.557861 221.606445 1767.258789 225.367645 1763.9552 228.116974 C 1760.651489 230.866333 1755.497559 236.087219 1752.501831 239.718964 C 1749.506226 243.350708 1745.1604 249.962128 1742.84436 254.411072 C 1740.52832 258.859985 1737.596069 265.763306 1736.328247 269.75177 C 1735.060425 273.740265 1733.735352 278.802734 1733.383667 281.00177 C 1732.744385 285 1732.744385 285 1829.5 285 Z"/>
    <path id="path1" fill="#000000" fill-rule="evenodd" stroke="none" d="M 795.098572 427 C 727.233276 427 727.233276 427 726.63031 424.75 C 726.298645 423.512512 726.018677 414.850006 726.008179 405.5 C 725.989075 388.5 725.989075 388.5 721.836304 395.5 C 719.451904 399.519257 714.025024 406.122894 709.091797 411.008057 C 703.640991 416.405701 698.125671 420.770416 694.005371 422.947083 C 690.43335 424.834106 685.323547 427.209106 682.650269 428.224884 C 679.97699 429.240662 674.616882 430.739166 670.738892 431.554932 C 666.860901 432.370697 659.145691 433.213165 653.593994 433.427124 C 648.042297 433.641083 641.924988 433.616821 640 433.373199 C 638.075012 433.129578 632.776306 432.254364 628.225098 431.428223 C 623.67395 430.602112 616.023926 428.541382 611.225098 426.848816 C 606.426331 425.15625 599.799988 422.410095 596.5 420.746216 C 593.200012 419.082336 587.125 415.471619 583 412.722382 C 578.875 409.973114 571 403.140076 565.5 397.537811 C 559.345581 391.268951 553.469116 384.068909 550.218994 378.814911 C 547.314392 374.119568 543.347656 366.377228 541.403931 361.60968 C 539.460266 356.842163 536.798462 348.717468 535.488831 343.554871 C 534.17926 338.392212 532.567322 329.365601 531.906799 323.495728 C 531.206848 317.275024 530.943665 307.541626 531.275879 300.161591 C 531.589417 293.197693 532.807434 282.774994 533.982666 277 C 535.157898 271.225006 537.411865 262.78006 538.991516 258.233429 C 540.571106 253.686829 544.089661 245.738312 546.810486 240.570038 C 549.531311 235.401794 554.313843 227.77652 557.438354 223.625 C 560.562927 219.47348 566.35498 213.076172 570.309692 209.408722 C 574.264343 205.741302 580.833069 200.487671 584.90686 197.733978 C 588.980652 194.980316 596.855652 190.569031 602.40686 187.931152 C 607.958069 185.293243 616.549988 181.982727 621.5 180.574463 C 626.450012 179.166168 635 177.33844 640.5 176.512848 C 646 175.687256 656.575012 175.01178 664 175.01178 C 671.424988 175.01178 682 175.688904 687.5 176.516479 C 693 177.344025 700.828186 178.933014 704.895935 180.047546 C 708.963684 181.162048 715.93866 183.584808 720.395935 185.431458 C 724.853149 187.278076 731.526917 190.546448 735.226563 192.694489 C 738.926147 194.842529 745.616638 199.485687 750.094299 203.012604 C 754.57196 206.539551 760.660645 212.283813 763.624695 215.777679 C 766.588745 219.271545 770.750061 224.688385 772.87207 227.815094 C 774.99408 230.941772 778.531799 237.100006 780.733643 241.5 C 782.935486 245.899994 785.891907 252.875 787.303467 257 C 788.715027 261.125 790.884033 269 792.123474 274.5 C 794.325439 284.27124 794.385254 286.129944 794.737793 355.75 L 795.098572 427 Z M 114.880806 427 C 115.669464 277.618164 115.936325 266.442291 117.405167 259.163208 C 118.330414 254.578003 120.237961 247.152985 121.644142 242.663208 C 123.050331 238.173462 126.019318 230.807465 128.241898 226.294403 C 130.464478 221.781311 135.057861 214.581329 138.449417 210.294403 C 141.840973 206.007477 146.957657 200.541107 149.819839 198.146912 C 152.682022 195.752716 158.567749 191.663849 162.899231 189.060577 C 167.230713 186.457275 175.042252 182.91217 180.258209 181.182617 C 185.474167 179.453033 193.062378 177.466888 197.12088 176.768951 C 201.179398 176.071045 212.149994 175.5 221.5 175.5 C 236.610977 175.5 239.704407 175.799347 249.338821 178.194031 C 255.673416 179.768524 263.984711 182.762848 269.338837 185.399506 C 274.377472 187.880798 281.565002 192.237427 285.311127 195.080902 C 289.057251 197.924377 294.755096 203.309875 297.972961 207.048645 L 303.823669 213.846466 L 308.161835 208.338898 C 310.547821 205.309723 316.100006 199.912903 320.5 196.345947 C 324.899994 192.779022 332.582123 187.86142 337.571381 185.417999 C 342.560638 182.974579 351.110626 179.817627 356.571381 178.402557 C 363.765442 176.5383 370.218201 175.673309 380 175.261932 C 387.622955 174.941376 397.636139 175.178802 403.001007 175.807373 C 408.226563 176.419586 416.551544 178.084442 421.501007 179.506989 C 426.450439 180.929535 433.314606 183.39978 436.754669 184.996368 C 440.194733 186.592987 445.585938 189.609467 448.735138 191.699646 C 451.884308 193.789856 457.224091 198.084717 460.601288 201.243835 C 463.978516 204.402924 469.083801 210.375671 471.946411 214.516602 C 474.809052 218.657501 478.67453 225.342621 480.536377 229.372375 C 482.398254 233.402161 485.064606 240.643463 486.461578 245.464203 C 487.858582 250.284943 489.676208 259.375671 490.500793 265.665802 C 491.718018 274.951263 492 291.19989 492 352.051208 L 492 427 L 454.5 427 L 417 427 L 416.985229 352.75 C 416.97287 290.706543 416.726959 277.467346 415.489471 272.218506 C 414.674957 268.763702 413.122284 264.19989 412.039124 262.076691 C 410.955933 259.953491 408.542175 256.596649 406.675201 254.617096 C 404.808228 252.637512 400.630035 249.776337 397.39035 248.258942 C 392.298492 245.873993 390.008881 245.455292 380.5 245.170288 C 371.058472 244.887268 368.657074 245.155975 363.550568 247.066742 C 359.996338 248.396698 355.720642 251.05191 352.930115 253.66214 C 350.174225 256.239929 347.205231 260.382507 345.688873 263.765686 C 344.275269 266.919556 342.645386 272.424988 342.066895 276 C 341.401398 280.112701 341.012329 309.035767 341.007568 354.75 L 341 427 L 303.535309 427 L 266.070618 427 L 265.776031 350.25 C 265.483948 274.150146 265.462982 273.451447 263.300415 267.766907 C 262.10083 264.613739 259.778351 260.084747 258.139343 257.702515 C 256.500336 255.320282 253.369858 252.186981 251.182739 250.739624 C 248.995621 249.292267 244.915359 247.358765 242.115479 246.442993 C 238.232407 245.172882 234.471756 244.874512 226.262405 245.18515 C 217.863174 245.50296 214.402115 246.087128 210.5 247.845551 C 207.75 249.084778 203.773621 251.764008 201.663605 253.799347 C 199.553589 255.834717 196.706375 259.69101 195.336487 262.368927 C 193.966599 265.046844 192.213287 270.221832 191.440247 273.868927 C 190.307022 279.215393 190.031357 294.690491 190.017365 353.75 L 190 427 L 152.440399 427 L 114.880806 427 Z M 852 427 L 852 181 L 889.5 181 L 927 181 L 927 304 L 927 427 L 889.5 427 L 852 427 Z M 983.906616 427 C 984.628296 279.005249 984.741638 275.058746 986.725952 265.964478 C 987.8703 260.71994 990.00531 252.857849 991.47052 248.493164 C 992.935669 244.128479 996.127258 236.719452 998.562866 232.028687 C 1000.998474 227.337921 1005.262329 220.484894 1008.038025 216.799774 C 1010.813721 213.114624 1016.085083 207.35025 1019.752197 203.990051 C 1023.41925 200.629822 1029.71582 195.82608 1033.744629 193.315063 C 1037.773438 190.804047 1044.62561 187.212219 1048.97168 185.333221 C 1053.317749 183.454224 1061.20813 180.817291 1066.505981 179.473419 C 1071.803711 178.129517 1080.944702 176.500214 1086.819092 175.852722 C 1093.367065 175.131012 1103.497681 174.911316 1113 175.285004 C 1122.784668 175.669769 1132.181641 176.676666 1138.484497 178.015686 C 1143.975952 179.182343 1152.353271 181.595917 1157.10083 183.37915 C 1161.848389 185.162415 1169.05542 188.525879 1173.116333 190.853577 C 1177.177368 193.181244 1183.417847 197.444427 1186.984253 200.327301 C 1190.550537 203.210205 1196.246094 208.882904 1199.640991 212.933319 C 1203.036011 216.983734 1207.740723 223.665833 1210.096069 227.782471 C 1212.451416 231.899078 1215.903809 239.327789 1217.767944 244.29068 C 1219.63208 249.253571 1221.992798 257.180939 1223.013916 261.907043 C 1224.035156 266.633179 1225.349731 274.869751 1225.935303 280.210571 C 1226.583374 286.121704 1227 316.73877 1227 358.460571 L 1227 427 L 1189.543091 427 L 1152.08606 427 L 1151.766724 354.75 C 1151.471069 287.832153 1151.312012 282.094086 1149.612183 277 C 1148.602783 273.975006 1146.664307 269.302734 1145.304321 266.617218 C 1143.944458 263.931671 1140.856934 259.62326 1138.443481 257.042969 C 1136.029907 254.462677 1131.532349 251.116241 1128.449097 249.606506 C 1125.365723 248.096741 1120.515869 246.380524 1117.671509 245.792725 C 1114.827148 245.204926 1107.775024 244.938293 1102 245.200256 C 1094.386353 245.545593 1089.909912 246.294067 1085.715454 247.923035 C 1082.119995 249.319397 1077.749756 252.188843 1074.167603 255.50531 C 1070.997803 258.439972 1067.178589 263.093292 1065.680298 265.846008 C 1064.182129 268.598724 1062.011841 274.371979 1060.857422 278.675476 C 1058.845459 286.175842 1058.737793 289.410461 1058.256104 356.75 L 1057.753662 427 L 1020.830139 427 L 983.906616 427 Z M 663 363.903137 C 666.575012 363.937317 672.650024 363.303925 676.5 362.495605 C 680.349976 361.687286 686.650024 359.475983 690.5 357.581604 C 694.349976 355.687195 699.611023 352.114258 702.191223 349.641754 C 704.771362 347.16925 708.508484 342.697266 710.495911 339.703979 C 712.483337 336.710724 715.286194 330.940308 716.724487 326.880859 C 718.836975 320.918457 719.426758 317.130035 719.793213 307.167969 C 720.135376 297.867432 719.844055 293.196838 718.608093 288.167969 C 717.706726 284.50061 715.405701 278.200378 713.494751 274.167542 C 711.09375 269.100616 708.075562 264.890381 703.726196 260.540985 C 700.089233 256.904053 694.810791 252.923676 691.222961 251.112549 C 687.807922 249.388641 682.441162 247.308075 679.296814 246.489105 C 676.097534 245.655792 669.221924 245 663.684265 245 C 657.906799 245 651.231689 245.659271 647.644348 246.584198 C 644.264954 247.455505 638.800049 249.592987 635.500183 251.334198 C 632.200256 253.075378 626.744507 257.247437 623.376282 260.605377 C 619.328247 264.641052 616.018555 269.217529 613.613159 274.105377 C 611.611633 278.172424 609.312744 284.649994 608.504395 288.5 C 607.696106 292.350006 607.034729 299.325012 607.034729 304 C 607.034729 308.674988 607.693787 315.649994 608.499329 319.5 C 609.304871 323.350006 611.765076 330.154327 613.96637 334.620728 C 616.977356 340.729858 619.566895 344.23642 624.420227 348.776489 C 627.968506 352.095734 633.713013 356.209717 637.185852 357.91864 C 640.65863 359.627563 646.424988 361.659241 650 362.433411 C 653.575012 363.207581 659.424988 363.868958 663 363.903137 Z M 889 158.903137 C 886.525024 158.868958 881.755798 158.243958 878.401794 157.514282 C 875.047791 156.784576 869.925537 154.982483 867.019043 153.509644 C 864.112488 152.036774 859.562683 148.800323 856.908325 146.317474 C 854.253967 143.834625 850.66626 139.596649 848.935669 136.89975 C 847.205078 134.20285 844.936584 129.257019 843.894531 125.909058 C 842.639465 121.876343 842 116.849792 842 111.016235 C 842 105.088074 842.641846 100.133911 843.964111 95.855347 C 845.044373 92.359894 847.223755 87.475006 848.807129 85 C 850.390503 82.524994 854.008972 78.342285 856.848145 75.705078 C 859.687378 73.067902 864.752625 69.613281 868.104309 68.028198 C 871.455994 66.443085 877.363953 64.580475 881.233093 63.889008 C 886.737122 62.905396 890.033936 62.886536 896.383911 63.802429 C 901.855164 64.591553 906.828247 66.118805 911.644653 68.489075 C 916.619568 70.937347 920.463257 73.813171 924.30127 77.95871 C 927.332886 81.233185 930.96405 86.344849 932.370544 89.317932 C 933.777039 92.291016 935.383057 96.698242 935.939453 99.111786 C 936.49585 101.525299 936.951111 106.875 936.951111 111 C 936.951111 115.125 936.49585 120.474701 935.939453 122.888214 C 935.383057 125.301758 933.777039 129.708984 932.370544 132.682068 C 930.96405 135.655151 927.39917 140.69519 924.448669 143.882141 C 921.42157 147.151703 916.4599 151.075195 913.061829 152.886383 C 909.749573 154.651764 903.993225 156.74173 900.269836 157.530731 C 896.546387 158.319733 891.474976 158.937317 889 158.903137 Z"/>
</svg>
